<svg version="1.2" viewBox="5318 6197 9815 7599" preserveAspectRatio="xMidYMid" fill-rule="evenodd" stroke-width="28.222" stroke-linejoin="round" xmlns="http://www.w3.org/2000/svg" xml:space="preserve">
  <defs class="ClipPathGroup">
    <clipPath id="a" clipPathUnits="userSpaceOnUse">
      <path d="M0 0h21000v29700H0z"/>
    </clipPath>
  </defs>
  <g class="Master_Slide">
    <g class="Background"/>
    <g class="BackgroundObjects"/>
  </g>
  <g class="SlideGroup">
    <g class="Slide" clip-path="url(#a)">
      <g class="Page">
        <g class="com.sun.star.drawing.PolyPolygonShape"/>
        <g class="com.sun.star.drawing.ClosedBezierShape">
          <path class="BoundingBox" fill="none" d="M5418 6881h4857v5760H5418z"/>
          <path fill="#002060" d="m5498 7603 604-319 65-251c199-27 402-70 608-130 45-15 72-22 82-22 8 0 16 6 19 21 6 14 12 58 17 126 59 720 157 1308 295 1760q207 681 420 663 138-10.5 483-564c231-368 462-824 694-1369 6-16 16-40 30-73 38-98 73-149 104-151 133-11 323 1 568 35 245 35 420 72 524 112 42 17 73 43 94 77 20 33 33 99 41 200 52 630 195 272 90 839-8 45-42 93-93 142-53 51-92 94-118 129-81 108-153 225-213 352-61 129-110 210-151 241-155 117-323 261-501 435-180 174-374 379-583 617l-147-61c96-399 173-957 307-1654l42-222c-316 779-629 1390-933 1829-306 440-575 668-807 687-238 20-436-113-588-396-152-285-298-799-433-1546-47 729-78 1387-93 1981-15 592-12 1053 9 1379l-290 140-52 29c-27 2-49-57-69-178-21-120-43-326-67-620-54-675-50-1831 13-3465 13-341 23-598 29-773"/>
        </g>
        <g class="com.sun.star.drawing.ClosedBezierShape">
          <path class="BoundingBox" fill="none" d="M10176 7328h4857v5761h-4857z"/>
          <path fill="#002060" d="m14951 12364-604 320-65 250c-199 27-402 70-608 130-45 15-72 22-82 23-8 0-16-7-20-22-5-14-11-58-16-126-59-720-158-1307-295-1760q-207-681-420-663-138 12-483 564c-231 368-462 824-694 1369-6 16-16 40-30 73-38 98-73 149-104 152-133 10-323-2-568-36-245-35-420-72-524-112-42-17-73-43-94-76-20-34-33-100-41-201-52-629-194-271-90-839 8-45 42-92 93-142 53-50 92-93 118-128 81-109 153-226 213-353 61-129 110-210 151-241 155-117 323-261 501-435 180-174 374-379 583-616l147 61c-96 398-173 956-307 1653l-42 222c316-779 629-1390 933-1828 306-440 575-669 807-688 238-19 436 113 588 397s298 799 433 1545c47-728 78-1387 93-1981 15-592 12-1052-9-1379l290-140 52-28c27-2 49 57 69 178 20 119 43 326 67 619 55 676 51 1832-13 3466-13 340-23 597-29 772"/>
        </g>
        <g class="com.sun.star.drawing.PolyPolygonShape">
          <path class="BoundingBox" fill="none" d="M5734 6297h8897v7399H5734z"/>
          <path fill="#e51c20" d="m6519 12924 209-41 242-208 467-345 194-228 298-95 354-288 408-199 178-415 469-321 190-275 869-920 508-702 278-352 398-251 184-410 303-89 601-510 472-189 317-128 323-280 439-187 410-194-942 878-307 284-421 198-659 433-324 356-481 464-545 539-112 363-524 515-436 436-149 201-94 291-672 432-229 372-703 340-566 282-221 183-521 255-215 253-775 323z"/>
        </g>
      </g>
    </g>
  </g>
</svg>
