<svg width="100" height="100" viewBox="0 0 100 100" fill="none" xmlns="http://www.w3.org/2000/svg">
<g clip-path="url(#clip0_50_642)">
<rect width="100" height="100" rx="5" fill="url(#paint0_linear_50_642)"/>
<path d="M82.6229 37.4033C82.1337 37.4066 81.655 37.268 81.2506 37.0061C80.8462 36.7442 80.5353 36.3714 80.3592 35.9372C75.5428 23.8877 68.6072 17.6568 57.0959 15.1827C42.5985 12.0215 29.0162 22.9256 28.8718 23.0172C28.3863 23.4121 27.7559 23.6074 27.1191 23.5602C26.4823 23.5129 25.8913 23.2269 25.4762 22.7652C25.061 22.3035 24.8557 21.7038 24.9054 21.098C24.9551 20.4923 25.2557 19.9301 25.7411 19.5352C26.3672 19.0771 41.2499 7.02756 58.1555 10.6928C71.2562 13.5334 79.4922 20.818 84.8385 34.2878C84.9783 34.6325 85.0285 35.0043 84.9846 35.3715C84.9407 35.7386 84.8041 36.0902 84.5865 36.3962C84.3688 36.7023 84.0766 36.9537 83.7347 37.1291C83.3928 37.3044 83.0113 37.3985 82.6229 37.4033ZM27.2342 78.6373C26.5955 78.6373 25.9829 78.396 25.5313 77.9663C25.0797 77.5367 24.826 76.9541 24.826 76.3465C24.826 59.3948 33.7845 35.8456 48.4264 35.8456C52.4982 36.0239 56.3299 37.7294 59.083 40.5886C61.8361 43.4479 63.2864 47.2282 63.1164 51.1021C63.1164 54.0802 61.4307 58.2494 59.745 62.327C58.6372 64.9384 57.3368 68.2372 57.3368 69.4284C57.3368 73.9183 60.6119 73.9183 61.6715 73.9183C69.8594 73.9183 72.6048 58.1577 72.6048 50.9647C72.6048 49.9567 72.364 27.0031 51.4126 27.0031C26.5599 27.0031 19.8169 57.8828 19.7687 58.1577C19.641 58.7531 19.2698 59.2759 18.7369 59.611C18.204 59.9461 17.553 60.0661 16.9271 59.9445C16.3011 59.823 15.7516 59.47 15.3993 58.963C15.0471 58.4561 14.9209 57.8368 15.0487 57.2414C15.0968 56.9207 22.5623 22.4216 51.3644 22.4216C71.9786 22.4216 77.373 41.0685 77.373 50.9647C77.373 58.6159 74.5795 78.4999 61.7197 78.4999C54.8804 78.4999 52.4722 73.6434 52.4722 69.4284C52.4722 67.3667 53.7726 64.2512 55.2657 60.6318C56.6143 57.3331 58.3 53.2097 58.3 51.1021C58.3 44.5047 53.1946 40.4271 48.4264 40.4271C38.3119 40.4271 29.6424 60.1736 29.6424 76.3465C29.6424 76.9541 29.3887 77.5367 28.937 77.9663C28.4854 78.396 27.8729 78.6373 27.2342 78.6373ZM46.3553 89.9995C45.8178 90.0097 45.2922 89.8484 44.8622 89.5414C44.5733 89.2665 37.9266 84.0435 37.9266 76.3923C37.9266 66.9085 46.3072 48.7655 46.6443 47.9867C46.7459 47.6796 46.9144 47.3963 47.1387 47.1554C47.3631 46.9144 47.6384 46.7211 47.9465 46.5881C48.2547 46.4551 48.5889 46.3854 48.9273 46.3835C49.2657 46.3816 49.6007 46.4476 49.9106 46.5771C50.2204 46.7066 50.498 46.8968 50.7253 47.1353C50.9527 47.3737 51.1246 47.6551 51.23 47.961C51.3354 48.2669 51.3718 48.5905 51.3368 48.9107C51.3019 49.2309 51.1964 49.5405 51.0272 49.8193C50.9791 50.0026 42.743 67.8706 42.743 76.3923C42.743 81.8902 47.8484 85.922 47.8966 85.9678C48.2692 86.2709 48.5357 86.6749 48.6605 87.1259C48.7853 87.577 48.7623 88.0535 48.5948 88.4917C48.4272 88.93 48.123 89.3092 47.7229 89.5787C47.3227 89.8481 46.8456 89.9949 46.3553 89.9995Z" fill="black"/>
</g>
<defs>
<linearGradient id="paint0_linear_50_642" x1="0" y1="50" x2="100" y2="50" gradientUnits="userSpaceOnUse">
<stop stop-color="#D9D9D9"/>
<stop offset="0.515" stop-color="#C6C6C6"/>
<stop offset="1" stop-color="#B0B0B0"/>
</linearGradient>
<clipPath id="clip0_50_642">
<rect width="100" height="100" rx="5" fill="white"/>
</clipPath>
</defs>
</svg>
